<svg width="40" height="40" viewBox="0 0 40 40" fill="none" xmlns="http://www.w3.org/2000/svg">
<path d="M19.3029 21.8725C18.2651 22.1765 17.2273 22.4845 16.1895 22.7847C16.0642 22.8198 15.9389 22.8509 15.8097 22.8665C15.0539 22.9406 14.4351 23.2135 13.8124 23.7047C12.5906 24.6636 12.1441 25.9267 11.9248 27.3651C11.7055 28.7997 10.9184 29.9146 9.71219 30.7488C9.96283 30.3746 10.233 30.0159 10.4602 29.63C11.0711 28.6048 11.2943 27.4743 11.4666 26.3048C11.5645 25.6499 11.9131 25.0301 12.1715 24.4024C12.4378 23.7592 12.7433 23.1316 13.0018 22.4845C13.3268 21.6815 13.9887 21.2527 14.7288 20.9408C16.119 20.3522 17.525 19.8142 18.923 19.249C20.0039 18.8084 21.727 18.9878 22.3418 19.7479C23.1525 20.7498 23.2112 21.4086 22.2048 22.2389C20.9947 23.233 19.906 24.3791 18.7938 25.4862C18.4139 25.8643 18.1163 26.3243 17.7795 26.7453C17.7991 26.796 17.8187 26.8467 17.8382 26.9012C18.1476 26.8467 18.457 26.8038 18.7625 26.7297C19.6436 26.5153 20.3485 26.7258 20.744 27.3378C21.0691 27.8368 20.9242 28.3085 20.3407 28.3982C19.7454 28.4917 19.1306 28.4605 18.5236 28.4878C17.9675 28.5112 17.4075 28.5346 16.8514 28.5775C16.73 28.5853 16.5851 28.6399 16.5028 28.7256C15.0147 30.168 13.5305 31.6181 12.0541 33.0683C11.9836 33.1384 11.9562 33.2515 11.9405 33.2788C12.8021 33.2788 13.6949 33.4035 14.533 33.2476C15.7705 33.0176 16.9375 33.1969 18.1045 33.5205C19.0953 33.7972 19.1345 33.7622 19.624 32.8461C20.0352 32.0781 20.5326 31.353 21.0299 30.6358C21.7035 29.6651 22.1108 28.6399 22.1069 27.4314C22.1069 26.7219 22.1969 25.9656 22.4554 25.3107C22.8431 24.3245 23.411 23.4045 23.9122 22.4611C24.4057 21.5294 25.0362 20.6484 25.3808 19.67C25.8938 18.2198 26.8533 17.4129 28.2866 17.0036C29.0189 16.7931 29.7277 16.6605 30.464 16.8983C31.1258 17.1127 31.6114 17.5961 31.8738 18.1964C32.2106 18.9683 32.4847 19.7869 32.6257 20.6133C32.7902 21.6074 32.4299 22.5391 31.8268 23.3304C31.2668 24.0672 30.5619 24.6987 30.0175 25.4472C29.575 26.0553 29.2891 26.7726 28.9093 27.4275C28.7291 27.7394 28.5333 28.0551 28.2827 28.3085C27.7814 28.8114 27.2096 28.6243 27.0491 27.9304C26.8141 26.9129 27.1431 25.9929 27.6443 25.1548C28.2161 24.1997 28.9053 23.3187 29.528 22.3909C30.0919 21.5489 30.1429 20.6211 29.8883 19.67C29.8139 19.3893 29.622 19.3308 29.3009 19.3503C28.5333 19.3971 27.9968 19.7401 27.6365 20.3872C26.8885 21.7321 25.7058 22.7184 24.7385 23.8801C24.2921 24.418 23.8457 24.9755 23.5245 25.5914C23.3444 25.9384 23.2621 26.4841 23.411 26.8194C24.0806 28.3475 23.8613 29.7859 23.2191 31.24C23.0311 31.661 22.9097 32.121 22.8235 32.5732C22.7805 32.7915 22.8901 33.0371 22.9214 33.232C23.7987 32.5381 24.5858 31.8715 25.4239 31.2712C25.792 31.01 26.2424 30.819 26.6849 30.7176C26.9433 30.6591 27.2566 30.8346 27.5464 30.9047C27.4524 31.2088 27.4446 31.5947 27.2488 31.7974C26.3128 32.7642 25.3142 33.6725 24.3548 34.6159C23.9475 35.0174 23.4775 35.2201 22.941 35.0408C22.3066 34.8303 21.9816 34.2884 22.0011 33.6608C22.0207 32.963 22.146 32.2613 22.3183 31.583C22.5181 30.8034 22.8157 30.0471 23.082 29.248C22.9606 29.2558 22.9058 29.2441 22.894 29.2636C22.2087 30.3824 21.5155 31.4973 20.8459 32.6278C20.6109 33.0254 20.4543 33.4737 20.2193 33.8752C20.1057 34.0701 19.8316 34.3781 19.7337 34.343C19.1815 34.1481 18.829 34.7055 18.3356 34.6432C17.8382 34.5808 17.3331 34.5496 16.8396 34.4638C15.3006 34.1988 13.7733 34.534 12.2381 34.5496C11.7878 34.5535 11.3452 34.9005 10.887 35.0447C10.515 35.1577 10.0999 35.2318 9.84143 34.8108C9.57121 34.3703 9.70044 33.9064 9.98241 33.5672C10.5385 32.9006 11.169 32.2964 11.776 31.6688C12.5906 30.8268 13.4051 29.9886 14.2158 29.1427C14.298 29.057 14.3372 28.9244 14.4155 28.7841C13.9691 28.7841 13.5657 28.8153 13.1741 28.7685C13.0409 28.7529 12.8725 28.5502 12.8373 28.4021C12.8177 28.3163 13.0057 28.1253 13.1388 28.0707C13.4952 27.9187 13.8712 27.7355 14.2471 27.7121C14.8189 27.6809 15.0343 27.4041 15.1831 26.9012C15.5238 25.7395 16.4167 24.9521 17.2273 24.1257C17.9401 23.4006 18.6881 22.7106 19.4204 22.005C19.3734 21.966 19.3381 21.9193 19.3029 21.8725Z" fill="white"/>
<path d="M2.97643 29.396C2.72971 29.5169 2.53782 29.6143 2.20103 29.782C2.33418 29.5325 2.38117 29.3999 2.46341 29.3025C2.99209 28.6827 3.3563 28.055 3.24273 27.1623C3.09 25.9422 3.66959 24.8585 4.13562 23.7709C4.55856 22.7885 5.04025 21.8256 5.39663 20.816C5.65901 20.0714 5.72558 19.2606 5.94489 18.4965C6.3835 16.9684 7.28031 15.7171 8.45124 14.6567C8.99167 14.1656 9.56343 13.7056 10.1469 13.2651C10.8832 12.7076 12.2186 12.9025 12.7512 13.6666C13.0488 14.0915 13.0919 14.6061 12.8569 15.0816C12.5436 15.7132 12.1246 16.294 11.8701 16.945C11.4745 17.9586 11.1534 19.0033 10.8479 20.048C10.4446 21.4319 9.57127 22.4844 8.54915 23.4434C7.76983 24.1763 6.95526 24.8702 6.19161 25.6225C5.79608 26.0085 5.42796 26.4451 5.14599 26.9167C4.96976 27.213 4.96193 27.6145 4.9071 27.9732C4.82486 28.5072 4.76221 29.0413 4.67997 29.6767C4.88361 29.322 5.06767 29.0296 5.2204 28.7255C5.73342 27.7003 6.10545 26.5776 6.77512 25.6654C7.45653 24.7415 8.41208 24.0164 9.26581 23.2212C9.57127 22.9366 10.049 22.999 10.2018 23.4044C10.3702 23.8488 10.4367 24.3595 10.4211 24.839C10.3897 25.8525 10.3623 26.8817 10.1704 27.8757C10.0216 28.6281 9.677 29.3571 9.3128 30.0431C8.92118 30.7799 8.40425 31.4504 8.02046 32.2262C8.37683 31.9728 8.73712 31.7194 9.09349 31.466C9.13657 31.4894 9.17965 31.5167 9.22273 31.5401C8.48649 32.694 7.76983 33.8595 6.99834 34.99C6.70463 35.4188 6.29735 35.8087 5.67467 35.5709C5.21648 35.3916 4.95018 34.7756 5.02067 34.1129C5.13424 33.1033 5.61201 32.2418 6.21511 31.4621C7.24114 30.1328 7.87948 28.6827 7.92256 26.9791C7.93822 26.3125 8.1262 25.6537 8.24368 24.952C8.13795 25.0378 7.96172 25.1274 7.8599 25.2639C7.28422 26.0357 6.72812 26.8154 6.16028 27.595C6.12895 27.6418 6.08587 27.6769 6.05454 27.7276C4.96976 29.4506 3.84974 31.1503 2.8237 32.9084C2.36159 33.6997 2.08746 34.6041 1.73892 35.4578C1.60577 35.7814 1.38646 36.0971 1.04967 35.9061C0.799038 35.7658 0.536654 35.3721 0.540571 35.0953C0.567984 33.805 1.03401 32.6472 1.77025 31.5869C2.18145 30.9943 2.5339 30.3667 2.90594 29.7469C2.95685 29.665 2.94902 29.5481 2.97643 29.396ZM6.16811 23.4824C6.21902 23.5175 6.26602 23.5526 6.31693 23.5876C6.88477 22.921 7.49961 22.2895 8.00088 21.58C8.31417 21.1395 8.56089 20.6016 8.65488 20.0753C8.94468 18.4731 9.41462 16.9606 10.3976 15.6391C10.4955 15.5066 10.5542 15.3389 10.703 15.0544C10.4446 15.2376 10.331 15.3311 10.2057 15.4052C8.88985 16.1654 8.14578 17.3504 7.76199 18.7733C7.35471 20.278 7.17457 21.8568 6.24644 23.1861C6.19161 23.2602 6.19161 23.381 6.16811 23.4824Z" fill="white"/>
<path d="M20.7052 18.2119C19.2523 18.0287 17.7916 17.8767 16.3465 17.6467C15.3244 17.483 14.5647 16.8203 14.3806 15.8418C14.173 14.7503 14.6547 13.8186 15.6259 13.1715C16.2251 12.7739 16.8125 12.3606 17.3608 11.9007C18.0383 11.3315 18.8254 11.2224 19.6557 11.2224C20.67 11.2224 21.7273 11.0391 22.6868 11.2691C23.7951 11.5342 24.9386 11.9552 25.7022 12.9259C26.2544 13.6237 25.996 14.3877 25.6161 15.0115C24.5861 16.7228 22.9492 17.6116 21.0538 18.0833C20.948 18.1106 20.8305 18.0872 20.717 18.0872C20.713 18.1301 20.7091 18.169 20.7052 18.2119ZM16.5227 13.6938C16.2369 14.0525 15.8766 14.3605 15.716 14.7503C15.5476 15.1557 16.045 15.8223 16.6402 15.873C18.0618 15.9977 19.5069 16.1303 20.9206 16.0133C22.0563 15.8028 22.9727 15.2882 23.3055 15.0465C23.987 14.6528 23.9204 14.1616 23.2468 13.7406C23.0588 13.6237 22.8669 13.5145 22.675 13.3976C21.9153 14.1227 20.9793 14.4228 20.0081 14.645C18.7393 14.9335 17.5644 14.8477 16.5227 13.6938ZM21.7156 12.8869C21.5589 12.8089 21.4845 12.7388 21.4062 12.731C20.5564 12.6725 19.7066 12.5906 18.8568 12.5867C18.5396 12.5828 18.2028 12.7271 17.9091 12.8713C17.7368 12.9571 17.631 13.1793 17.4939 13.3391C17.6545 13.4405 17.8033 13.5925 17.9796 13.6354C19.2993 13.9667 20.5212 13.7562 21.7156 12.8869Z" fill="white"/>
<path d="M33.9417 25.8915C34.1688 25.8409 34.392 25.7746 34.6231 25.7473C35.2262 25.6771 35.8332 25.5602 36.4324 25.5836C37.149 25.6109 37.4701 26.2775 37.0119 26.8115C36.0329 27.9498 35.0069 29.0491 33.9534 30.1173C33.3542 30.7254 32.6689 31.24 32.0227 31.7974C31.9836 31.7584 31.9444 31.7233 31.9092 31.6844C32.2225 31.3764 32.5436 31.0762 32.8451 30.7605C33.5657 30.0081 34.3137 29.2752 34.9755 28.4683C35.2849 28.0941 35.422 27.5756 35.6883 27.0026C34.8228 27.1585 34.1336 27.2481 33.46 27.4119C32.994 27.5249 32.6219 27.3183 32.4457 27.0064C32.2812 26.7141 32.2068 26.1839 32.3713 25.9383C32.7316 25.3926 33.2289 24.9209 33.7302 24.4882C34.5448 23.7904 35.4142 23.1511 36.2561 22.4845C36.354 22.4065 36.4245 22.2974 36.5929 22.1024C35.9154 22.0206 35.3319 21.9036 34.7445 21.8841C34.0827 21.8646 33.4835 21.5957 33.2838 21.046C33.0527 20.4106 33.2994 19.8453 33.695 19.3581C34.349 18.5472 35.0147 17.7442 35.7079 16.9645C36.3893 16.2044 37.1138 15.4793 38.0967 15.1129C38.3278 15.0271 38.6802 15.0115 38.8682 15.1324C39.0092 15.2259 39.0014 15.5846 39.0131 15.8262C39.0444 16.4656 38.6058 16.8866 38.2064 17.2764C37.6346 17.8338 37.3135 18.5082 37.0472 19.2294C36.9885 19.3893 36.8514 19.5218 36.6752 19.7674C36.9454 19.7674 37.1138 19.7557 37.2782 19.7713C37.8265 19.822 38.41 19.7791 38.9113 19.9623C39.53 20.1884 39.6436 20.7653 39.1698 21.2136C38.2965 22.0362 37.3566 22.7885 36.4402 23.5682C35.5825 24.2972 34.7171 25.0222 33.8555 25.7473C33.8829 25.7941 33.9143 25.8448 33.9417 25.8915Z" fill="white"/>
<path d="M4.13574 39.1923C4.9973 38.9233 5.86277 38.6544 6.72433 38.3815C8.001 37.9761 9.26593 37.5395 10.5504 37.1652C12.4811 36.6 14.4744 36.4635 16.4717 36.3661C17.2275 36.3271 17.9794 36.1049 18.7274 36.1244C19.7339 36.1478 20.7403 36.3232 21.7468 36.4285C22.0248 36.4596 22.3029 36.4752 22.5809 36.4947C23.3132 36.5454 23.6853 36.9079 23.697 37.5979C23.7088 38.171 23.2075 38.67 22.6318 38.8025C21.641 39.0364 20.7246 38.6427 19.773 38.5647C18.7979 38.4828 17.811 38.5296 16.8281 38.4984C15.7354 38.4634 14.6428 38.3893 13.5541 38.3659C12.9824 38.3542 12.4067 38.4127 11.8349 38.4283C10.2332 38.4711 8.64326 38.5062 7.07287 38.974C6.14865 39.2508 5.13045 39.2118 4.15532 39.3132C4.15141 39.2703 4.14357 39.2313 4.13574 39.1923Z" fill="white"/>
<path d="M27.3855 36.2337C27.1584 35.4423 27.5265 34.8537 28.435 34.7523C29.6295 34.6159 31.1646 35.0291 31.7912 36.2883C32.1672 37.0406 31.9596 38.062 31.3487 38.7753C30.1895 40.1358 28.0826 40.3113 26.5944 39.5628C25.7916 39.1574 25.5606 38.405 25.9561 37.5864C26.3634 36.7482 26.6689 36.4559 27.3855 36.2337ZM27.5578 36.4793C27.3738 36.7521 27.0996 37.0406 26.9821 37.3798C26.8882 37.6448 26.8725 38.1399 27.0252 38.2491C27.7027 38.7403 28.8893 38.5609 29.4376 37.9489C29.5942 37.7735 29.7861 37.4694 29.7313 37.2979C29.6726 37.1108 29.3632 36.9549 29.1321 36.8808C28.6309 36.7171 28.11 36.6157 27.5578 36.4793Z" fill="white"/>
<path d="M20.2583 7.98295C20.4228 7.57753 20.5598 7.15652 20.7635 6.7667C21.2491 5.83501 21.488 4.93452 21.0964 3.8625C20.5324 2.32658 21.4684 0.626943 23.0544 0.061696C23.5401 -0.109827 23.7985 0.0811873 23.7084 0.572367C23.6654 0.806263 23.6301 1.08694 23.4813 1.25066C22.8156 1.98354 22.7725 2.84895 22.8861 3.74945C23.027 4.85265 22.6667 5.76874 21.9109 6.56399C21.4214 7.07856 20.9515 7.61652 20.4737 8.14668L20.2583 7.98295Z" fill="white"/>
<path d="M23.458 7.94395C24.0024 7.1604 24.578 6.40024 25.0793 5.5894C25.4553 4.98128 25.7333 4.31857 26.0466 3.67536C26.3246 3.09842 26.775 2.85673 27.1823 3.07893C27.6366 3.32842 27.9499 4.32247 27.6561 4.69281C26.6223 5.99872 25.4631 7.1682 23.9789 7.97514C23.9123 8.01022 23.8457 8.04531 23.7752 8.0648C23.7243 8.08039 23.6656 8.0687 23.6147 8.0687C23.5637 8.02581 23.5089 7.98683 23.458 7.94395Z" fill="white"/>
<path d="M16.9102 9.68653C16.9572 8.90298 16.8749 8.08435 17.0786 7.34368C17.3762 6.27556 17.3918 5.23472 17.2587 4.1588C17.2313 3.9483 17.2979 3.58186 17.4232 3.52729C17.6229 3.44152 17.944 3.4961 18.1555 3.60525C18.974 4.03406 19.2873 4.86439 18.927 5.722C18.5784 6.55233 18.1633 7.35537 17.7756 8.16621C17.5328 8.67299 17.29 9.17976 17.0472 9.68653C17.0041 9.69043 16.9572 9.69043 16.9102 9.68653Z" fill="white"/>
</svg>
